<svg xmlns="http://www.w3.org/2000/svg" width="404.521" height="32.4"><defs><linearGradient id="a" x1=".5" x2=".5" y2="1" gradientUnits="objectBoundingBox"><stop offset="0" stop-opacity=".102"/><stop offset="1"/></linearGradient></defs><g data-name="グループ 16"><path data-name="パス 157" d="M10.65 1.2L0 16.14v4.41h11.88v5.1h5.25v-5.1H21v-4.38h-3.87V1.2zm1.23 14.97H6.06l3.21-4.8a37.3 37.3 0 002.82-5.4h.09c-.15 1.44-.3 4.56-.3 5.82zM25.23 1.35v24.3h5.55v-8.04l2.25-2.34 6.93 10.38h6.87l-10.2-13.74 9.54-10.56H39l-8.22 10.53V1.35zm33.15 0v24.3h16.74v-4.83h-11.1V1.35zM77.91 0v4.83h5.52V0zm.06 7.95v17.7h5.4V7.95zm7.98 0l7.47 18h4.5l7.47-18h-5.97l-2.7 7.83c-.24.72-.48 1.59-.99 3.48h-.12l-.09-.33c-.48-1.77-.6-2.25-.9-3.15l-2.7-7.83zm38.28 10.08V16.5c0-5.46-3.54-9.18-8.73-9.18-5.55 0-9.45 3.96-9.45 9.63 0 5.61 3.81 9.33 9.6 9.33a11.578 11.578 0 008.79-3.33l-2.82-3.33a6.9 6.9 0 01-5.37 2.34 4.462 4.462 0 01-4.77-3.93zm-12.66-3.66a3.759 3.759 0 013.69-3.18 3.262 3.262 0 013.51 3.18zm25.26 7.47a13.387 13.387 0 0010.32 4.35 14.717 14.717 0 006.48-1.17 6.937 6.937 0 003.84-6.12 5.962 5.962 0 00-1.95-4.74 10.522 10.522 0 00-5.25-2.67l-2.43-.66c-3.3-.87-4.17-1.53-4.17-3 0-1.56 1.44-2.46 3.93-2.46a9.8 9.8 0 016.27 2.13l2.4-3.81A14.482 14.482 0 00147.6.87c-6.12 0-9.6 2.67-9.6 7.35a5.777 5.777 0 002.31 4.77 15.3 15.3 0 004.89 1.98l2.22.63c3.12.87 4.17 1.77 4.17 3.45a2.451 2.451 0 01-1.14 1.92 6.688 6.688 0 01-3.15.6 9.963 9.963 0 01-7.74-3.45zM168.48 2.4l-5.34 2.13v3.42h-4.02V12h4.02v8.28c0 3.69 2.07 5.82 5.67 5.82a9.243 9.243 0 005.16-1.29l-.96-3.72a4.911 4.911 0 01-2.67.9 2.033 2.033 0 01-1.56-.72 3.624 3.624 0 01-.3-1.86V12h5.49V7.95h-5.49zm13.68 10.8l.21-5.25h-5.16v17.7h5.34V18.3a5.429 5.429 0 015.37-5.64 5.994 5.994 0 011.74.27l1.29-4.98a5.739 5.739 0 00-2.52-.51c-3.24 0-5.19 1.8-6.15 5.76zm27.57 4.83V16.5c0-5.46-3.54-9.18-8.73-9.18-5.55 0-9.45 3.96-9.45 9.63 0 5.61 3.81 9.33 9.6 9.33a11.578 11.578 0 008.79-3.33l-2.82-3.33a6.9 6.9 0 01-5.37 2.34 4.462 4.462 0 01-4.77-3.93zm-12.66-3.66a3.759 3.759 0 013.69-3.18 3.262 3.262 0 013.51 3.18zm27.18.06h-2.49c-6.21 0-9.39 2.01-9.39 5.94 0 3.39 2.61 5.76 6.36 5.76a7.123 7.123 0 003.78-.9 6.637 6.637 0 002.19-2.19h.12a8.951 8.951 0 00.81 2.61h4.59a12.583 12.583 0 01-.96-5.34v-5.43c0-2.31-.39-3.84-1.32-5.01-1.26-1.62-3.72-2.55-6.66-2.55a14.731 14.731 0 00-8.04 2.34l2.07 3.36a9.778 9.778 0 015.73-1.62c1.98 0 3.21.96 3.21 2.52zm-.03 3.24v.69a3.8 3.8 0 01-3.9 3.72c-1.56 0-2.52-.75-2.52-1.98 0-1.77 1.5-2.43 5.64-2.43zm14.46-9.72h-4.98v17.7h5.01v-9.36c.36-2.52 1.56-4.23 2.94-4.23 1.44 0 2.19 1.29 2.19 3.69v9.9h5.01v-9.51c.39-2.28 1.71-4.08 2.97-4.08a1.887 1.887 0 011.59.93 5.1 5.1 0 01.57 2.79v9.87h5.07v-10.8c0-4.71-1.95-7.23-5.61-7.23-2.1 0-3.87 1.44-4.98 4.08-.75-2.76-2.43-4.08-5.16-4.08-2.07 0-3.54 1.17-4.62 3.72zM263.76 0v4.83h5.52V0zm.06 7.95v17.7h5.4V7.95zm15.66 0h-5.28v17.7h5.28v-9.36c.57-2.55 2.28-4.26 4.2-4.26 1.71 0 2.79 1.47 2.79 3.78v9.84h5.28v-10.8a7.526 7.526 0 00-1.74-5.43 5.924 5.924 0 00-4.53-1.8 6.271 6.271 0 00-6 3.72zm33.48.03h-4.02l-.66 2.04a6.262 6.262 0 00-5.22-2.55c-4.41 0-7.8 3.84-7.8 8.82 0 5.16 3.18 8.7 7.8 8.7a6.257 6.257 0 004.74-2.19v1.8c0 2.34-1.41 3.66-3.87 3.66a9.237 9.237 0 01-6.09-2.19l-2.22 3.57c2.1 1.89 4.74 2.76 8.52 2.76 5.85 0 8.82-2.94 8.82-8.76zm-5.16 11.19a3.773 3.773 0 01-3.75 2.07c-2.13 0-3.84-2.22-3.84-4.95 0-2.67 1.68-4.77 3.84-4.77a4.277 4.277 0 013.75 2.13z"/><path data-name="合体 4" d="M-6350 58.309V14.8A15.164 15.164 0 01-6334.772 0a15.164 15.164 0 0115.225 14.8v43.512a15.162 15.162 0 01-15.227 15.1A15.162 15.162 0 01-6350 58.309z" transform="rotate(-90 -2993.877 -3324.995)" fill="url(#a)"/></g></svg>