<svg xmlns="http://www.w3.org/2000/svg" width="144.584" height="99.784"><path data-name="長方形 52" fill="#e6e6e6" d="M.045.06h105.079v67.297H.045z"/><path data-name="長方形 53" fill="#fff" d="M3.05 8.5h99.069v54.875H3.05z"/><path data-name="長方形 54" fill="#53c1de" d="M0 0h105.079v4.464H0z"/><circle data-name="楕円形 26" cx=".827" cy=".827" r=".827" transform="translate(2.49 1.455)" fill="#fff"/><circle data-name="楕円形 27" cx=".827" cy=".827" r=".827" transform="translate(5.631 1.455)" fill="#fff"/><circle data-name="楕円形 28" cx=".827" cy=".827" r=".827" transform="translate(8.771 1.455)" fill="#fff"/><path data-name="長方形 55" fill="#53c1de" d="M11.479 16.925h56.066v31.537H11.479z"/><path data-name="長方形 56" fill="#e6e6e6" d="M75.368 16.925h21.351v12.01H75.368z"/><path data-name="長方形 57" fill="#e6e6e6" d="M75.368 32.735h21.351v12.01H75.368z"/><path data-name="長方形 58" fill="#e6e6e6" d="M75.368 48.544h21.351v12.01H75.368z"/><path data-name="長方形 59" fill="#e6e6e6" d="M11.479 53.759h38.627v2.608H11.479z"/><path data-name="パス 91" d="M46.846 32.694l-12.224-7.057v14.115l12.224-7.057-12.224-7.057v14.115z" fill="#fff"/><path data-name="パス 92" d="M125.531 92.877l.5 2.511-2.511.5.377-3.139z" fill="#ffb8b8"/><path data-name="パス 93" d="M135.809 92.421l-.569 2.843-2.339.056.747-3.468z" fill="#ffb8b8"/><path data-name="パス 94" d="M139.537 63.215l.652 4.4s-.652 9.779-.815 10.268-.652 2.934-.652 2.934l-2.771 11.733s-2.4.326-2.887-.978l.117-7.008-.163-7.986-1.956-9.127-3.423 12.387a31.729 31.729 0 01-.652 5.541 75.03 75.03 0 00-1.141 7.823s-2.073.489-2.236 0-1.024-12.061-1.024-13.854-.958-18.983-.958-18.983z" fill="#2f2e41"/><path data-name="パス 95" d="M133.652 95.101a2.022 2.022 0 00.814 0c.305-.1 0-.713 0-.713h1.12s1.222 2.748 1.73 2.952 2.138 2.443.2 2.443a6.319 6.319 0 01-3.359-1.018 1.349 1.349 0 00-1.12-1.018c-.916-.1-1.527-1.221-1.527-1.221l.994-1.836a.329.329 0 01.577 0c.143.243.336.461.571.411z" fill="#2f2e41"/><path data-name="パス 96" d="M125.132 94.786s-.227.454-.454.227a3.109 3.109 0 01-.454-.795s-.681-.341-.795 0a14.67 14.67 0 01-.795 2.384c-.227.227-2.611 2.611-.227 3.065s2.838-.568 2.838-.568a.517.517 0 01.341-.795 1.328 1.328 0 00.795-1.022l-.342-2.566a.278.278 0 00-.5-.129c-.13.174-.277.286-.407.199z" fill="#2f2e41"/><path data-name="パス 97" d="M143.286 51.804l.489 8.475s2.282 5.378-.815 5.216-1.141-5.378-1.141-5.378l-3.032-7.564z" fill="#ffe9b8"/><path data-name="パス 98" d="M118.186 49.355l-.489 8.475s-2.282 5.378.815 5.215 1.141-5.378 1.141-5.378l3.032-7.564z" fill="#ffe9b8"/><circle data-name="楕円形 29" cx="4.238" cy="4.238" r="4.238" transform="translate(126.987 22.467)" fill="#ffe9b8"/><path data-name="パス 99" d="M134.562 28.415s-1.141 4.564 1.141 5.7-7.171 2.771-7.823 0l.326-1.3a4.418 4.418 0 00.978-3.1z" fill="#ffe9b8"/><path data-name="パス 100" d="M132.04 34.201s-2.812.263-3.688-1.58c0 0-6.58.439-8.047 6.469 1.7.049 3.814 19.42 1.024 21.351-2.265 1.567 3.908 3.981 12.5 4.075l6.519-.326c-1.216-1.047-4.124-14.676-2.282-14.505 0 0 4.889-7.66 4.4-8.8a10.2 10.2 0 00-7.563-7.465s-.092.946-2.863.781z" fill="#e6e6e6"/><path data-name="パス 101" d="M140.351 38.113l2.119 2.771s2.119 11.572 1.467 11.735-4.563 1.467-5.216.978-3.586-10.1-3.586-10.1z" fill="#e6e6e6"/><path data-name="パス 102" d="M123.076 37.298l-2.771 1.793s-4.075 11.409-2.934 11.9 7.5.163 7.5.163z" fill="#e6e6e6"/><path data-name="パス 103" d="M135.857 22.912s-1.468-3.18-4.281-2.446-4.4 1.835-4.526 2.936a15.706 15.706 0 00.061 2.752s.306-2.263 2.263-1.774a17.456 17.456 0 005.015.122l.489 4.4s.55-.8 1.162-.306 1.773-4.705-.183-5.684z" fill="#2f2e41"/></svg>