<svg xmlns="http://www.w3.org/2000/svg" width="244.134" height="73.497"><g transform="translate(0 -53.763)"><path data-name="パス 47" d="M244.134 108.023a3.259 3.259 0 01-.04.5c-1.7 10.392-55.681 18.733-122.026 18.733S1.736 118.919.04 108.526a3.247 3.247 0 01-.04-.5v-.221a.116.116 0 000-.028 3.57 3.57 0 01.043-.313c.774-4.249 10.295-8.153 25.824-11.281 12.7-2.558 29.422-4.6 48.668-5.88 14.605-.974 30.664-1.513 47.523-1.513 13.565 0 26.612.349 38.8.99q3.826.2 7.538.444a426.344 426.344 0 0144.084 4.878 149.805 149.805 0 0118.806 4.327c7.709 2.429 12.254 5.153 12.779 8.034.019.1.033.207.043.314a.116.116 0 000 .028v.076c.026.045.026.094.026.142z" fill="#3f3d56"/><ellipse data-name="楕円形 21" cx="39.204" cy="5.726" rx="39.204" ry="5.726" transform="translate(79.779 114.72)" opacity=".1"/><path data-name="パス 48" d="M231.3 99.426c-1.37.392-2.914.755-4.607 1.088a146.426 146.426 0 01-26.962 2.216c-11.7 0-22.193-1.052-29.3-2.717-5.9-1.382-9.471-3.18-9.471-5.153 0-1.734 2.764-3.339 7.45-4.638a426.314 426.314 0 0144.084 4.878 149.783 149.783 0 0118.806 4.326z" opacity=".1"/><path data-name="パス 49" d="M126.341 96.801c0 3.593-22.542 6.507-50.347 6.507s-50.346-2.913-50.346-6.507a1.038 1.038 0 01.228-.622c12.7-2.558 29.422-4.6 48.668-5.88h1.451c27.804-.002 50.346 2.909 50.346 6.502z" opacity=".1"/><path data-name="パス 51" d="M178.924 106.203c0 11.574-16.133 7.994-35.887 7.994s-35.647 3.58-35.647-7.994 16.131-14.091 35.885-14.091 35.649 2.517 35.649 14.091z" opacity=".1"/><path data-name="パス 52" d="M178.924 103.353c0 11.574-16.133 7.994-35.887 7.994s-35.647 3.58-35.647-7.994 16.131-14.091 35.885-14.091 35.649 2.517 35.649 14.091z" fill="#3f3d56"/><path data-name="パス 53" d="M175.629 82.575l.815 3.364a.21.21 0 010 .114l-3.7 11.559a.21.21 0 01-.409-.04l-.512-4.5a.211.211 0 01.009-.089l3.4-10.42a.21.21 0 01.4.016z" fill="#2f2e41"/><path data-name="パス 54" d="M175.326 82.859l.753 2.886-3.263 10.54-.753-3.262z" fill="#f2f2f2"/><path data-name="パス 55" d="M158.892 98.543c.125.376 13.049-.125 13.175-.251a2.727 2.727 0 00.276-.5c.118-.251.226-.5.226-.5l-.5-4.063-12.8-.454s-.32 3.443-.385 5.019a3.767 3.767 0 00.008.749z" fill="#2f2e41"/><path data-name="パス 56" d="M170.436 93.776l.251 3.513h-5.646v-3.513z" opacity=".1"/><path data-name="パス 57" d="M163.158 94.905l.034-.007-.159 1.512h-3.137v-1.506z" opacity=".1"/><path data-name="パス 58" d="M158.892 98.544c.125.376 13.049-.125 13.175-.251a2.726 2.726 0 00.276-.5h-13.459a3.767 3.767 0 00.008.751z" opacity=".1"/><path data-name="パス 59" d="M138.941 85.369h3.517l8.658-3.388s6.148-2.51 5.646 2.259-1.38 11.167-1.38 11.167-2.76-1.255-4.266-.878-.5-7.654-.5-7.654-12.3 5.9-13.426 5.145-1.38-6.023-1.38-6.023z" fill="#2f2e41"/><path data-name="パス 60" d="M138.941 85.369h3.517l8.658-3.388s6.148-2.51 5.646 2.259-1.38 11.167-1.38 11.167-2.76-1.255-4.266-.878-.5-7.654-.5-7.654-12.3 5.9-13.426 5.145-1.38-6.023-1.38-6.023z" opacity=".1"/><path data-name="パス 61" d="M144.476 74.366l4.252 6.109 9.913 8.281s9.16 2.133 7.9 3.639-8.909-1.506-8.909-1.506-11.418-8.281-11.795-8.909-4.517-6.525-4.517-6.525z" fill="#a0616a"/><path data-name="パス 62" d="M144.476 74.366l4.252 6.109 9.913 8.281s9.16 2.133 7.9 3.639-8.909-1.506-8.909-1.506-11.418-8.281-11.795-8.909-4.517-6.525-4.517-6.525z" opacity=".1"/><circle data-name="楕円形 22" cx="5.646" cy="5.646" r="5.646" transform="translate(138.188 56.384)" fill="#a0616a"/><path data-name="パス 63" d="M143.458 67.049a25.289 25.289 0 00-2.259 5.019c-.376 1.757-5.646-3.513-5.646-3.513l-.69-1.819s4.956-2.321 4.58-4.2 4.015 4.513 4.015 4.513z" fill="#a0616a"/><path data-name="パス 64" d="M141.953 69.433l2.761 5.4s-.627 2.635-1.631 2.886-5.27-3.262-5.27-3.262z" fill="#d0cde1"/><path data-name="パス 65" d="M144.462 76.836l5.145 6.776 12.3 9.16s8.909 1.882 6.9 3.262-7.78-1.255-7.78-1.255-12.422-6.65-15.057-9.411-7.529-7.4-7.529-7.4z" fill="#a0616a"/><path data-name="パス 66" d="M137.561 87.377l1.506 2.384 8.986-2.827a7.066 7.066 0 015.883.71c1.568.988 2.572 2.557.314 4.878-4.517 4.643-7.529 2.133-7.529 2.133s-15.183 7.152-17.692 3.639-2.635-5.27-2.635-5.27 9.661-6.024 11.167-5.647z" fill="#2f2e41"/><path data-name="パス 67" d="M156.382 95.658s4.015 2.635-.753 3.89a12.633 12.633 0 01-8.281-.5s-4.141 0-4.141-2.133 1.38-2.384 1.38-2.384l4.266.627s5.145-1.382 7.529.5z" fill="#d0cde1"/><path data-name="パス 68" d="M148.467 60.61a4.209 4.209 0 001.183.424 1.08 1.08 0 001.091-.468 1.467 1.467 0 00.124-.664 2.956 2.956 0 00-.471-1.967c-.278-.339-.683-.553-.971-.884a4.182 4.182 0 01-.491-.8 4.4 4.4 0 00-2.539-2.363 5.505 5.505 0 00-1.482-.113l-2.9.041a3.792 3.792 0 00-3.629 1.967 11.375 11.375 0 00-1.281 1.769 6.207 6.207 0 00-.736 3.041 2.847 2.847 0 00.1.8 4.471 4.471 0 00.316.695 3.645 3.645 0 01.254 3.431 6.593 6.593 0 002.817-1.914 5.272 5.272 0 01.978-1.182.98.98 0 011.368.114 1.225 1.225 0 01.138.574 2.631 2.631 0 00.159.969.726.726 0 00.789.45c.546-.154.494-.992.915-1.373.32-.289.813-.234 1.223-.365a1.816 1.816 0 001.042-1.026c.155-.349.153-1.261.447-1.45.375-.235 1.214.141 1.556.294z" fill="#2f2e41"/><path data-name="パス 69" d="M134.415 66.141a1.491 1.491 0 01.775 0c.805.216 2.611.789 3 1.66a14.054 14.054 0 002.259 2.886s2.384 2.384 1.882 4.015a11.118 11.118 0 01-2.384 3.513s.5 7.779-2.008 9.787-3.513.627-3.513 2.51-7.78 7.78-9.285 4.141c0 0 .753-6.776.5-9.16-.247-2.348.115-17.008 8.774-19.352z" fill="#d0cde1"/><path data-name="パス 70" d="M138.44 69.308s7.654 5.646 6.274 8.03c0 0-4.643 2.259-5.646 2.133s-4.894-4.517-5.9-4.894-1.504-7.152 5.272-5.269z" fill="#d0cde1"/><path data-name="パス 71" d="M117.272 74.367a3.666 3.666 0 00-2.513 2.575c-.113.571-.044 1.165-.139 1.74a6.491 6.491 0 01-2.231 3.3 5.529 5.529 0 00-2.032 3.393c-.077 1.477.994 2.861.809 4.328-.215 1.7-2.016 2.81-2.461 4.469a4.3 4.3 0 00.666 3.281 9.389 9.389 0 005.173 3.81 21.55 21.55 0 006.479.844c2.662.028 5.553-.2 7.553-1.958a6.051 6.051 0 002.009-3.939c.19-2.035-.659-4.138-.073-6.1.369-1.233 1.294-2.358 1.156-3.637-.135-1.251-1.227-2.137-1.977-3.147a12.794 12.794 0 01-1.54-3.156l-1.424-3.758a4.364 4.364 0 00-1.211-2c-1.168-.908-3.045-.729-4.411-.542a20.633 20.633 0 00-3.833.497z" fill="#2f2e41"/><path data-name="パス 72" d="M117.718 85.311s.631 2.051-4.1 4.418.473 4.891.473 4.891l5.522 1.262s5.68-.789 6.311-1.736 1.736-4.1 1.42-4.576a7.369 7.369 0 00-.789-.947s-3.787-.631-3.629-2.367-5.208-.945-5.208-.945z" fill="#ffb9b9"/><path data-name="パス 73" d="M117.718 85.311s.631 2.051-4.1 4.418.473 4.891.473 4.891l5.522 1.262s5.68-.789 6.311-1.736 1.736-4.1 1.42-4.576a7.369 7.369 0 00-.789-.947s-3.787-.631-3.629-2.367-5.208-.945-5.208-.945z" opacity=".1"/><circle data-name="楕円形 23" cx="5.049" cy="5.049" r="5.049" transform="translate(115.746 78.451)" fill="#ffb9b9"/><path data-name="パス 74" d="M120.242 94.15s-6.081-.445-6.2-4.64c0 0-2.166-.251-2.8.38s-2.682 1.1-2.682 2.682 3.471 6.311 3.471 6.311 1.893 6.311 1.1 7.415-.947 3.945-.947 3.945 7.889-.631 9.151 0 6.311.631 6.627 0-.316-8.52-.316-8.52a6.16 6.16 0 001.1-4.1l3.787-4.418s-1.42-4.26-3.629-4.26c0 0-3-.789-3.077-.394s1.515 4.81-5.585 5.599z" fill="#2c605e"/><path data-name="パス 75" d="M106.043 108.035a7.125 7.125 0 005.049 2.682c3.629.473 4.26-.789 3.944-1.1a39.274 39.274 0 00-4.1-1.736l-2.209-1.735z" fill="#ffb9b9"/><path data-name="パス 76" d="M131.918 106.141l-4.1 2.367s-5.364-.316-3.313 1.262 5.838.947 5.838.947l3.629-1.735z" fill="#ffb9b9"/><path data-name="パス 77" d="M111.407 110.243s-3.787 9.309.789 10.729 17.2 1.1 20.038-.789 3.629-4.418 3.156-5.207a10.7 10.7 0 00-5.838-3.156c-2.21-.157-18.145-1.577-18.145-1.577z" fill="#2f2e41"/><path data-name="パス 78" d="M111.407 110.243s-3.787 9.309.789 10.729 17.2 1.1 20.038-.789 3.629-4.418 3.156-5.207a10.7 10.7 0 00-5.838-3.156c-2.21-.157-18.145-1.577-18.145-1.577z" opacity=".05"/><path data-name="パス 79" d="M129.281 110.822s13.366-4.838 13.208 1-8.52 7.416-8.52 7.416l-2.524.316-13.882.472s.473-2.525-.631-2.84c0 0 3.629-.947 3.787-1.1s9.151-3.313 9.782-3.471 2.524-1.42 3.944-1.262a4.656 4.656 0 013.313-.947l-4.891.316z" fill="#2f2e41"/><path data-name="パス 80" d="M129.281 110.822s13.366-4.838 13.208 1-8.52 7.416-8.52 7.416l-2.524.316-13.882.472s.473-2.525-.631-2.84c0 0 3.629-.947 3.787-1.1s9.151-3.313 9.782-3.471 2.524-1.42 3.944-1.262a4.656 4.656 0 013.313-.947l-4.891.316z" opacity=".1"/><path data-name="パス 81" d="M126.92 111.606l1.685 3.845 10.256-3.629.789-2.051-2.682-.474-5.392.947-2.339.631z" fill="#2f2e41"/><path data-name="パス 82" d="M126.92 111.606l1.685 3.845 10.256-3.629.789-2.051-2.682-.474-5.392.947-2.339.631z" opacity=".1"/><path data-name="パス 83" d="M105.096 116.239s3 3.787 6.469 4.733 5.364-.316 5.364-.316l-1.1-4.418-.473-2.84-2.051-1.42-4.1-1.893-4.891-1.578s-2.051-.316-2.051 0 1.893 5.049 1.893 5.049z" fill="#2f2e41"/><path data-name="パス 84" d="M108.725 118.29s.631 4.576 1.42 4.891 3.155-.316 3.787-.631 2.776-1.771 2.776-1.771-7.51-2.804-7.983-2.489z" fill="#f2f2f2"/><path data-name="パス 85" d="M123.082 118.763l3 .473-.316 3.629-4.181-1.016z" fill="#ffb9b9"/><path data-name="パス 86" d="M124.966 119.773s-1.4 1.672.015 2.619l.947.789a19.4 19.4 0 013.471.947c.316.316 1.578-.473 1.578-.473s.158-4.733 0-5.049-2.051-.631-2.209-.316a4.419 4.419 0 01-3.156.473z" fill="#f2f2f2"/><path data-name="パス 87" d="M112.353 111.347s-11.044-6.469-12.78-4.1-3.629 5.68 1.42 8.2 20.827 7.731 20.827 7.731 2.367-3.626 2.367-4.573c0 0-8.362-3.787-9.782-4.1s-7.1-3.944-7.889-4.26a9.158 9.158 0 01-1.893-1.262z" fill="#2f2e41"/><path data-name="パス 88" d="M109.198 91.784l-.631.473a27.346 27.346 0 00-1.578 5.68c-.158 2.051-2.051 8.362-1.893 9.151a3.24 3.24 0 001.262 2.209s1.262-2.84 3.471-2.367l2.682-9.782z" fill="#2c605e"/><path data-name="パス 89" d="M131.288 91.784l1.262 1.42a13.635 13.635 0 01.789 2.367c0 .473 1.578 7.416 1.736 7.731s.789 4.26 0 5.207a7.1 7.1 0 01-2.209 1.578s.947-3.313-2.051-3.471l.316-1.262-2.84-9.467z" fill="#2c605e"/><path data-name="パス 90" d="M109.514 102.646v8.311a2 2 0 001.969 2l17.38.258a2 2 0 002.026-1.921l.32-8.312a2 2 0 00-1.968-2.075l-17.7-.257a2 2 0 00-2.027 2z" fill="#3f3d56"/><ellipse data-name="楕円形 24" cx="5.435" cy="2.926" rx="5.435" ry="2.926" transform="translate(115.656 77.485)" fill="#2f2e41"/><circle data-name="楕円形 25" cx="1.262" cy="1.262" r="1.262" transform="translate(118.901 105.747)" fill="#f2f2f2"/></g></svg>