<svg xmlns="http://www.w3.org/2000/svg" width="159.447" height="106.875"><path data-name="パス 29" d="M157.308 106.876H87.235a2.142 2.142 0 01-2.14-2.14V55.202a2.142 2.142 0 012.14-2.14h70.074a2.142 2.142 0 012.14 2.14v49.535a2.142 2.142 0 01-2.141 2.139z" fill="#e6e6e6"/><path data-name="パス 30" d="M154.391 55.979H90.152a2.143 2.143 0 00-2.141 2.141v43.7a2.143 2.143 0 002.141 2.141h64.239a2.142 2.142 0 002.139-2.141v-43.7a2.142 2.142 0 00-2.139-2.141z" fill="#fff"/><circle data-name="楕円形 13" cx="8.626" cy="8.626" r="8.626" transform="translate(111.355 66.208)" fill="#d5b480"/><path data-name="パス 31" d="M129.994 92.858l-15.4 1.54c1.424-6.41 1.769-12.4 0-17.561h10.777c-.584 4.302 1.606 9.963 4.623 16.021z" fill="#d5b480"/><path data-name="パス 32" d="M140.626 92.902a446.836 446.836 0 01-.689 11.053h-36.019q-.639-3.567-1.555-7.179a3.3 3.3 0 011.848-3.827l1.149-.512 10.152-4.512.119.026 4.194.9 7.395-1.848.129.026 10.367 2.121a3.7 3.7 0 01.885.3 3.645 3.645 0 012.025 3.452z" fill="#53c1de"/><path data-name="パス 33" d="M146.252 103.958h-7.783l-1.388-14.8a8.469 8.469 0 017.447 6.675z" fill="#53c1de"/><path data-name="パス 34" d="M106.249 103.959h-7.463l.268-2.617a10.013 10.013 0 016.292-9.1l.015.2z" fill="#53c1de"/><path data-name="パス 35" d="M113.133 69.92c3.888-2.225 7.782-.8 11.682 5.267l.8 6.466c5.854-5.546 5.558-13.114-1.007-16.192a3.351 3.351 0 00-1.973-.525 6.185 6.185 0 00-8.187 2.2c-1.213.21-2.952 2.62-2.889 3.849z" fill="#2f2e41"/><ellipse data-name="楕円形 14" cx="1.078" cy="1.386" rx="1.078" ry="1.386" transform="translate(123.371 73.91)" fill="#d5b480"/><path data-name="パス 36" d="M91.946 68.517H2.724A2.727 2.727 0 010 65.793V2.724A2.727 2.727 0 012.724 0h89.221a2.727 2.727 0 012.724 2.724v63.069a2.727 2.727 0 01-2.723 2.724z" fill="#e6e6e6"/><path data-name="パス 37" d="M88.23 3.714H6.44a2.729 2.729 0 00-2.725 2.725v55.639a2.729 2.729 0 002.725 2.725h81.79a2.727 2.727 0 002.723-2.725V6.443a2.727 2.727 0 00-2.723-2.729z" fill="#fff"/><path data-name="パス 38" d="M66.512 43.302l-25.227 5.773-10.659-20.1 21.571-8.422z" fill="#2f2e41"/><circle data-name="楕円形 15" cx="9.138" cy="9.138" r="9.138" transform="translate(36.064 23.148)" fill="#ffdfb9"/><path data-name="パス 39" d="M44.141 62.395l22.181-3.2c-3.311-5.993-6.725-11.455-11.313-10.845-4.082-2.857-4.317-7.449-3.285-12.614l-11.1 2.968c.977 3.184.6 5.979-2 8.137 3.63 5.117 5.983 10.283 5.517 15.554z" fill="#ffdfb9"/><path data-name="パス 40" d="M70.993 64.803h-35.1q-.746-1-1.587-1.938a12.003 12.003 0 00-.115-.132l.943-13.337.095-1.348a1.8 1.8 0 011.167-1.56 1.164 1.164 0 01.162-.056l2.91-.777.29-.078.041.049 1.634 1.9 1.091 1.268 4.826 5.6a5.033 5.033 0 003.457 1.735l1.786.125a5.036 5.036 0 005.4-5.05 4.864 4.864 0 00-.8-2.682 4.967 4.967 0 00-.436-.58l2.031.327 2.91.471 3.28 7.712c3.297 2.611 5.38 5.386 6.015 8.351z" fill="#53c1de"/><path data-name="パス 41" d="M28.661 53.283l4.413 7.979-2.489 2.316-1.317 1.225H17.831l6.855-7.292z" fill="#ffdfb9"/><path data-name="パス 42" d="M73.395 64.804H62.629l-1.141-4.91-2.432-10.468-.269-1.159-.006-.027 2.547.154a7.852 7.852 0 016.666 4.577z" fill="#53c1de"/><path data-name="パス 43" d="M30.882 64.026l10.589-3.585-3.734-12.7a1.8 1.8 0 00-1.958-1.28 1.8 1.8 0 00-.968.44l-10.817 9.6c2.069 3.401 4.269 3.487 6.888 7.525z" fill="#53c1de"/><path data-name="パス 44" d="M51.273 17.451s5.588 1.051 6.881 8.021a12.8 12.8 0 01.109 3.559c-.129 1.342.058 4.175 2.971 7.512a73.027 73.027 0 015.3 6.812l-5.839 1.555-2.609-9.675a49.491 49.491 0 00-5.783-13.292l-.054-.086s-1.939 5.182-7.138 5.893l1.6-2.11s-6.077 3.513-9.52 4.586a2.262 2.262 0 00-.73 3.934l.075.058c2.532 1.923 7.7 6.513 5.657 10.952s.339 5.249.339 5.249l-4.389-1.67-2.009-.86.2 1.485-9.806.205s-2.65-.016 2.057-7.089c0 0 1.136-2.652.2-4.678a10.763 10.763 0 01-1.087-4.932c.311-7.135 3.315-21.642 23.575-15.429z" fill="#2f2e41"/></svg>