<svg xmlns="http://www.w3.org/2000/svg" width="237.267" height="231.47"><g data-name="グループ 7" transform="translate(-1213.367 -302.53)"><g data-name="グループ 4"><path data-name="パス 128" d="M1408.437 391.328q-3.787-1.3-7.635-2.405.634-2.592 1.18-5.211c5.78-28.064 2-50.672-10.907-58.113-12.377-7.139-32.618.305-53.066 18.092q-3.024 2.642-5.906 5.421-1.936-1.852-3.932-3.631c-21.421-19.024-42.88-27.037-55.792-19.573-12.366 7.158-16.034 28.411-10.823 55.009q.764 3.951 1.752 7.857a156.84 156.84 0 00-8.781 2.764c-25.117 8.739-41.159 22.482-41.159 36.719 0 14.7 17.222 29.45 43.384 38.391q3.184 1.08 6.414 2.008-1.046 4.2-1.863 8.468c-4.963 26.136-1.084 46.889 11.247 54 12.74 7.353 34.119-.206 54.933-18.4a150.417 150.417 0 004.963-4.562q3.123 3.012 6.41 5.849c20.165 17.352 40.086 24.361 52.4 17.225 12.724-7.364 16.859-29.66 11.491-56.781q-.611-3.108-1.424-6.341 2.256-.664 4.413-1.378c27.2-9.01 44.9-23.578 44.9-38.479 0-14.29-16.561-28.106-42.186-36.929z" fill="#53c1de"/><path data-name="パス 129" d="M1402.542 457.115c-1.3.431-2.627.844-3.986 1.248a237.325 237.325 0 00-12.014-30.056 237.865 237.865 0 0011.544-29.622c2.424.7 4.784 1.443 7.051 2.226 21.956 7.555 35.348 18.73 35.348 27.342 0 9.167-14.465 21.082-37.943 28.862zm-9.743 19.31c2.375 11.991 2.711 22.834 1.145 31.305-1.413 7.616-4.253 12.694-7.765 14.729-7.479 4.325-23.467-1.3-40.712-16.137q-2.966-2.554-5.967-5.44a238.305 238.305 0 0019.886-25.25 236.75 236.75 0 0032.134-4.963q.725 2.932 1.286 5.727zm-98.547 45.294c-7.307 2.581-13.125 2.653-16.641.626-7.483-4.318-10.594-21-6.349-43.331q.763-3.959 1.729-7.876a238.918 238.918 0 0031.973 4.631 246.281 246.281 0 0020.367 25.159q-2.21 2.142-4.52 4.165c-9.204 8.047-18.431 13.743-26.559 16.626zm-34.222-64.66c-11.571-3.955-21.123-9.094-27.674-14.7-5.883-5.039-8.853-10.044-8.853-14.1 0-8.639 12.881-19.661 34.359-27.148q4.047-1.409 8.166-2.569a243.217 243.217 0 0011.564 29.961 246.743 246.743 0 00-11.705 30.389q-2.956-.845-5.857-1.834zm11.472-78.087c-4.459-22.788-1.5-39.979 5.952-44.285 7.937-4.581 25.487 1.955 43.988 18.382a130.862 130.862 0 013.558 3.283 242.775 242.775 0 00-20.207 25.014 247.55 247.55 0 00-31.66 4.921q-.912-3.634-1.63-7.311zm102.357 25.269q-3.478-6.009-7.212-11.865c7.57.958 14.82 2.226 21.631 3.783a215.912 215.912 0 01-7.593 20.429q-3.288-6.243-6.826-12.348zm-41.75-40.647a217.343 217.343 0 0113.961 16.851q-14.015-.66-28.041 0c4.608-6.078 9.331-11.728 14.08-16.848zm-41.995 40.716q-3.493 6.059-6.7 12.27c-2.951-7-5.475-13.881-7.536-20.528 6.769-1.527 13.988-2.753 21.509-3.7q-3.787 5.895-7.28 11.953zm7.487 60.568a215.57 215.57 0 01-21.856-3.516c2.1-6.761 4.677-13.793 7.693-20.944q3.218 6.219 6.723 12.278 3.566 6.181 7.433 12.182zm34.795 28.759a217.671 217.671 0 01-14.274-17.084q6.815.271 13.881.271 7.254 0 14.32-.321a215.3 215.3 0 01-13.935 17.134zm48.367-53.582a214.873 214.873 0 017.987 20.868 214.315 214.315 0 01-22.143 3.776q3.76-5.967 7.284-12.075 3.579-6.21 6.87-12.57zm-15.653 7.506q-5.391 9.361-11.381 18.363c-7.04.5-14.313.764-21.727.764s-14.565-.229-21.482-.68q-6.143-8.972-11.6-18.39t-10.121-19.119q4.684-9.747 10.09-19.127 5.4-9.376 11.5-18.325a286.865 286.865 0 0143.243.004q6.036 8.922 11.453 18.252t10.228 19.039q-4.753 9.781-10.2 19.2zm20.91-113.18c7.945 4.581 11.033 23.059 6.043 47.29q-.492 2.363-1.069 4.715a242.711 242.711 0 00-31.721-5.013 238.673 238.673 0 00-20.054-25.029q2.672-2.573 5.456-5c17.513-15.25 33.883-21.267 41.343-16.964z" fill="#001920"/></g><path data-name="パス 188" d="M1309.046 439.53v-21.006h9.595a8.286 8.286 0 016.123 2.139 6.474 6.474 0 011.8 4.79v.077a6.733 6.733 0 01-1.2 4.087 6.965 6.965 0 01-3.296 2.413l5.132 7.5h-5.41l-4.5-6.724h-3.63v6.724zm4.614-10.8h4.688a3.851 3.851 0 002.607-.813 2.718 2.718 0 00.938-2.161v-.059a2.694 2.694 0 00-.959-2.234 4.169 4.169 0 00-2.673-.769h-4.6zm24.54 11.093a13.671 13.671 0 01-4.75-.85 12.767 12.767 0 01-4.16-2.5l2.725-3.271a9.867 9.867 0 006.27 2.549 4.037 4.037 0 002.227-.527 1.647 1.647 0 00.806-1.45v-.059a1.609 1.609 0 00-.322-1.025 3.257 3.257 0 00-1.238-.813 17.652 17.652 0 00-2.675-.847q-1-.249-1.721-.476t-1.5-.542a8.081 8.081 0 01-1.3-.652 6.7 6.7 0 01-1.018-.806 3.933 3.933 0 01-.789-1.024 5.46 5.46 0 01-.461-1.3 7.192 7.192 0 01-.168-1.611v-.059a5.716 5.716 0 012.057-4.586 7.91 7.91 0 015.3-1.743 12.049 12.049 0 017.793 2.666l-2.4 3.486a9.858 9.858 0 00-5.449-2.08 3.372 3.372 0 00-2 .513 1.562 1.562 0 00-.717 1.314v.059a1.69 1.69 0 00.879 1.541 16.042 16.042 0 003.662 1.23 19.817 19.817 0 012.849.945 8.665 8.665 0 012.058 1.238 4.463 4.463 0 011.318 1.75 6.107 6.107 0 01.424 2.367v.059a5.823 5.823 0 01-2.117 4.783 8.585 8.585 0 01-5.583 1.721zm11.92-.293v-21.006h4.629v21.006z" fill="#fff"/><circle data-name="楕円形 31" cx="20.5" cy="20.5" r="20.5" transform="translate(1251.634 302.53)" fill="#fff"/></g></svg>